<mxfile host="app.diagrams.net">
  <diagram name="Multiprocessor Architecture" id="fHy5CyK0cO6o_JCkVtaG">
    <mxGraphModel dx="1262" dy="689" grid="1" gridSize="10" guides="1" tooltips="1" connect="1" arrows="1" fold="1" page="1" pageScale="1" pageWidth="1169" pageHeight="827" math="0" shadow="0">
      <root>
        <mxCell id="0"/>
        <mxCell id="1" parent="0"/>
        
        <!-- Multiple Processor Title -->
        <mxCell value="Multiple Processor" style="text;html=1;strokeColor=none;fillColor=none;fontSize=18;fontColor=#000000;fontStyle=1" vertex="1" parent="1">
          <mxGeometry x="120" y="20" width="180" height="30" as="geometry"/>
        </mxCell>
        
        <!-- Symmetric Multiprocessor Title -->
        <mxCell value="Symmetric Multiprocessor" style="text;html=1;strokeColor=none;fillColor=none;fontSize=18;fontColor=#000000;fontStyle=1" vertex="1" parent="1">
          <mxGeometry x="480" y="20" width="250" height="30" as="geometry"/>
        </mxCell>
        
        <!-- Multiple Processor Blocks -->
        <mxCell value="&#128187; Processor 1" style="rounded=1;fillColor=#FFE599;strokeColor=#666666;shadow=1;fontSize=14" vertex="1" parent="1">
          <mxGeometry x="150" y="80" width="140" height="50" as="geometry"/>
        </mxCell>
        
        <mxCell value="&#128187; Processor 2" style="rounded=1;fillColor=#FFE599;strokeColor=#666666;shadow=1;fontSize=14" vertex="1" parent="1">
          <mxGeometry x="150" y="150" width="140" height="50" as="geometry"/>
        </mxCell>
        
        <mxCell value="&#128187; Memory 1" style="rounded=1;fillColor=#D9EAD3;strokeColor=#666666;shadow=1;fontSize=14" vertex="1" parent="1">
          <mxGeometry x="150" y="220" width="140" height="50" as="geometry"/>
        </mxCell>
        
        <mxCell value="&#128187; Memory 2" style="rounded=1;fillColor=#D9EAD3;strokeColor=#666666;shadow=1;fontSize=14" vertex="1" parent="1">
          <mxGeometry x="150" y="290" width="140" height="50" as="geometry"/>
        </mxCell>
        
        <!-- Lines Multiple Processor -->
        <mxCell style="edgeStyle=orthogonalEdgeStyle;rounded=0;orthogonalLoop=1;jettySize=auto;html=1;strokeColor=#000000;" edge="1" parent="1" source="2" target="3">
          <mxGeometry relative="1" as="geometry"/>
        </mxCell>
        <mxCell style="edgeStyle=orthogonalEdgeStyle;rounded=0;orthogonalLoop=1;jettySize=auto;html=1;strokeColor=#000000;" edge="1" parent="1" source="3" target="4">
          <mxGeometry relative="1" as="geometry"/>
        </mxCell>
        <mxCell style="edgeStyle=orthogonalEdgeStyle;rounded=0;orthogonalLoop=1;jettySize=auto;html=1;strokeColor=#000000;" edge="1" parent="1" source="4" target="5">
          <mxGeometry relative="1" as="geometry"/>
        </mxCell>

        <!-- Symmetric Multiprocessor Blocks -->
        <mxCell value="&#128187; Processor 1" style="rounded=1;fillColor=#FFF2CC;strokeColor=#666666;shadow=1;fontSize=14" vertex="1" parent="1">
          <mxGeometry x="500" y="80" width="140" height="50" as="geometry"/>
        </mxCell>
        
        <mxCell value="&#128187; Processor 2" style="rounded=1;fillColor=#FFF2CC;strokeColor=#666666;shadow=1;fontSize=14" vertex="1" parent="1">
          <mxGeometry x="700" y="80" width="140" height="50" as="geometry"/>
        </mxCell>
        
        <mxCell value="Shared Bus" style="rounded=1;fillColor=#F6B26B;strokeColor=#666666;shadow=1;fontSize=14" vertex="1" parent="1">
          <mxGeometry x="600" y="160" width="140" height="40" as="geometry"/>
        </mxCell>
        
        <mxCell value="&#128187; Shared Memory" style="rounded=1;fillColor=#B6D7A8;strokeColor=#666666;shadow=1;fontSize=14" vertex="1" parent="1">
          <mxGeometry x="600" y="250" width="140" height="50" as="geometry"/>
        </mxCell>
        
        <!-- Lines Symmetric Multiprocessor -->
        <mxCell style="edgeStyle=orthogonalEdgeStyle;rounded=0;orthogonalLoop=1;jettySize=auto;html=1;strokeColor=#000000;" edge="1" parent="1" source="6" target="8">
          <mxGeometry relative="1" as="geometry"/>
        </mxCell>
        
        <mxCell style="edgeStyle=orthogonalEdgeStyle;rounded=0;orthogonalLoop=1;jettySize=auto;html=1;strokeColor=#000000;" edge="1" parent="1" source="7" target="8">
          <mxGeometry relative="1" as="geometry"/>
        </mxCell>
        
        <mxCell style="edgeStyle=orthogonalEdgeStyle;rounded=0;orthogonalLoop=1;jettySize=auto;html=1;strokeColor=#000000;" edge="1" parent="1" source="8" target="9">
          <mxGeometry relative="1" as="geometry"/>
        </mxCell>
        
      </root>
    </mxGraphModel>
  </diagram>
</mxfile>
